<?xml version="1.0" encoding="utf-8"?>
<!-- Generator: Adobe Illustrator 27.8.1, SVG Export Plug-In . SVG Version: 6.00 Build 0)  -->
<svg version="1.1" id="logo" xmlns="http://www.w3.org/2000/svg" xmlns:xlink="http://www.w3.org/1999/xlink" x="0px" y="0px"
	 viewBox="0 0 1319 326.7" style="enable-background:new 0 0 1319 326.7;" xml:space="preserve">
<path class="st0" d="M350,90.1h17.5c2.1,0,4.9-0.8,4.9-2.7V25.8h-27.3v61.5C345.1,89.2,347.9,90.1,350,90.1L350,90.1z"/>
<path class="st0" d="M372.3,260.8V120c0-1.9-2.8-2.7-4.9-2.7H350c-2.1,0-4.9,0.9-4.9,2.8v166.2c0,8,6.5,14.5,14.5,14.5h131v-25.4
	H387.1C378.9,275.5,372.3,268.9,372.3,260.8L372.3,260.8z"/>
<path class="st0" d="M653.7,34c-11.4-5.5-25.6-8.2-42.5-8.2h-83.8v139.7c0,2,2.8,3.2,5,3.2h17.3c2.1,0,4.9-0.9,4.9-2.8V69.1
	c0-9.9,8.1-18,18-18h39.7c16.1,0,28.2,3.9,36.2,11.8s12,19.6,12,35.3v130.2c0,15.6-4,27.4-12,35.3c-8,7.9-20.1,11.8-36.2,11.8h-41.7
	c-8.8,0-16-7.2-16-16v-60.7c0-1.9-2.8-2.8-4.9-2.8h-17.3c-2.2,0-5,1.1-5,3.2v101.7h83.7c16.9,0,31-2.8,42.4-8.4
	c11.4-5.6,20-13.8,25.8-24.8c5.8-10.9,8.7-24.5,8.7-40.6V99.5c0-16.1-2.8-29.7-8.6-40.8C673.7,47.7,665.2,39.5,653.7,34L653.7,34z"
	/>
<path class="st0" d="M738.2,37.5v41c0,2.1,2.8,3.3,5.1,3.3h17.1c2.2,0,5-1.2,5-3.3V62.9c0-6.5,5.3-11.8,11.8-11.8h108.3V25.8H750
	C743.5,25.8,738.2,31.1,738.2,37.5L738.2,37.5z"/>
<path class="st0" d="M765.5,259.5v-67.6c0-8.2,6.7-14.9,14.9-14.9h90.1v-25.4H779c-7.5,0-13.5-6.1-13.5-13.5v-25.6
	c0-2.1-2.8-3.4-5-3.4h-17.1c-2.4,0-5.1,1.4-5.1,3.5v172.2c0,8.8,7.2,16,16,16h131.3v-25.4H781.5
	C772.7,275.5,765.5,268.3,765.5,259.5L765.5,259.5z"/>
<path class="st0" d="M1059.3,172.8L1059.3,172.8c8.3-6,15.5-12.9,20.5-22c6-10.7,9-23.4,9-38.2v-16c0-14.6-3-27.1-9-37.9
	c-6-10.7-14.6-18.8-25.8-24.6c-11.2-5.6-24.3-8.4-39.4-8.4h-72.7c-8.2,0-14.8,6.6-14.8,14.8v29.1c0,2.2,2.8,3.7,5.2,3.7h17.1
	c2.2,0,5-1.3,5-3.4V62c0-6,4.9-11,10.9-11h51.1c9.2,0,17.2,2,24,5.8c6.9,3.8,12,9.4,15.6,16.5c3.6,7.2,5.4,15.5,5.4,25v14.6
	c0,9.3-1.8,17.5-5.4,24.4c-3.7,7.1-8.9,12.5-15.7,16.2c-6.9,3.8-14.8,5.8-23.9,5.8H967c-6.9,0-12.5-5.6-12.5-12.4v-43.1
	c0-2.1-2.8-3.3-5-3.3h-17.1c-2.4,0-5.2,1.4-5.2,3.6v197h27.3V196.4c0-6.5,5.3-11.8,11.8-11.8h36.4c15.6,0.1,17,2.4,24.1,17.1
	c0.1,0.1,0.2,0.3,0.3,0.5l39.3,98.8h32.2l-46.5-108.7C1050.2,188,1051.2,179.2,1059.3,172.8L1059.3,172.8z"/>
<path class="st0" d="M1241.3,41.5c-2.8-9.4-11.4-15.8-21.2-15.8l0,0c-9.8,0-18.4,6.4-21.2,15.8l-77.8,259.3h30.2l18.7-66.8l7.1-25.4
	l38.7-138.1c1.2-4.3,7.4-4.3,8.6,0l38.6,138.1l7.1,25.4l18.7,66.8h30.2L1241.3,41.5L1241.3,41.5z"/>
<path class="st0" d="M1207.4,184.5h25.3c2.7,0,4.9,2.2,4.9,4.9v25.3c0,2.7-2.2,4.9-4.9,4.9h-25.3c-2.7,0-4.9-2.2-4.9-4.9v-25.3
	C1202.5,186.7,1204.7,184.5,1207.4,184.5z"/>
<path class="st0" d="M190.5,35.3c-0.4-0.4-0.7-0.8-1-1.1c-0.8-0.8-1.6-1.7-2.4-2.4v0C158.7,4.7,122.6,0,122.6,0
	c6.4,2.2,12.4,4.8,17.8,7.7c0.1,0,0.1,0,0.2,0.1c27.4,14.6,42.6,36.4,48.7,52.2c0.3,0.7,0.5,1.5,0.8,2.2c0.3,0.8,0.5,1.5,0.7,2.2
	c1.8,5.9,2.6,12.1,2.5,18.2c0,2.1-0.2,4.3-0.4,6.4c-0.3,2.5-0.7,5-1.2,7.6c-1.6,9.1-4.4,18.8-8.8,28.7c-0.1,0.1-0.1,0.1-0.1,0.2
	c-6.1,14-15.7,28.7-27.6,43.3c-0.1,0.1-0.2,0.2-0.3,0.4c-8.6,10.7-18.3,21.4-28.8,31.9c-1.7,1.8-2.9,2.9-3.3,3.3
	c-0.1,0.1-0.1,0.1-0.1,0.1v0.1h0l0-204.7H91.4v233.6c-20.4,17.9-41.5,34.5-60.2,48.5V0H0v326.6l0,0l31.2,0l0,0
	c0,0,26.3-18,60.2-48.3v48.3h31.2v-77.9c20.4-20.6,41.6-44.5,60.2-70.8v148.6H214V96.8c-0.1-6.7-0.9-13.5-2.7-20.3
	C208,63.9,201.8,47.9,190.5,35.3L190.5,35.3z"/>
</svg>
